<?xml version="1.0" encoding="UTF-8" standalone="no"?>
<!-- Created with Inkscape (http://www.inkscape.org/) -->

<svg
   width="9.260417mm"
   height="15.875mm"
   viewBox="0 0 9.260417 15.875"
   version="1.1"
   id="svg1"
   xml:space="preserve"
   inkscape:version="1.3.2 (091e20e, 2023-11-25, custom)"
   sodipodi:docname="logo-peinture.svg"
   xmlns:inkscape="http://www.inkscape.org/namespaces/inkscape"
   xmlns:sodipodi="http://sodipodi.sourceforge.net/DTD/sodipodi-0.dtd"
   xmlns="http://www.w3.org/2000/svg"
   xmlns:svg="http://www.w3.org/2000/svg"><sodipodi:namedview
     id="namedview1"
     pagecolor="#ffffff"
     bordercolor="#666666"
     borderopacity="1.0"
     inkscape:showpageshadow="2"
     inkscape:pageopacity="0.0"
     inkscape:pagecheckerboard="0"
     inkscape:deskcolor="#d1d1d1"
     inkscape:document-units="mm"
     inkscape:zoom="4.0624968"
     inkscape:cx="18.58463"
     inkscape:cy="33.107718"
     inkscape:window-width="1600"
     inkscape:window-height="877"
     inkscape:window-x="3512"
     inkscape:window-y="-8"
     inkscape:window-maximized="1"
     inkscape:current-layer="layer1" /><defs
     id="defs1" /><g
     inkscape:label="Calque 1"
     inkscape:groupmode="layer"
     id="layer1"
     transform="translate(-37.188236,-99.581108)"><path
       style="fill:#ffff00;stroke-width:0.860545"
       d="m 43.204016,113.186 c -0.83541,-1.0532 -1.0223,-1.14472 -1.0223,-0.50057 0,0.22238 -0.04858,0.49834 -0.108015,0.61323 -0.12924,0.24993 -0.492248,0.38975 -0.797786,0.30728 -0.340842,-0.092 -0.470926,-0.34169 -0.557351,-1.06986 -0.07405,-0.62383 -0.09085,-0.66718 -0.345587,-0.8911 -0.147269,-0.12946 -0.391784,-0.29198 -0.543376,-0.36116 -0.289787,-0.13226 -0.386731,-0.32365 -0.325684,-0.64298 0.01955,-0.10203 -0.0086,-0.21604 -0.06464,-0.26257 -0.118219,-0.0981 -0.133709,-0.69016 -0.01987,-0.7605 0.05702,-0.0353 0.05702,-0.0712 0,-0.12816 -0.114552,-0.11454 -0.09727,-0.58119 0.02766,-0.74653 0.06845,-0.0906 0.09188,-0.2256 0.06521,-0.37553 -0.05264,-0.29659 0.182858,-0.7009 0.486733,-0.83541 0.118648,-0.0525 0.204838,-0.12814 0.191537,-0.16805 -0.0442,-0.13273 -0.45666,-0.32711 -0.853813,-0.40243 -0.215698,-0.0409 -0.42219,-0.10439 -0.458874,-0.14107 -0.03666,-0.0367 -0.09402,-0.37226 -0.127399,-0.74573 -0.03341,-0.37347 -0.07973,-0.78513 -0.102906,-0.9148 -0.0232,-0.12968 -0.0086,-0.29928 0.03333,-0.37689 0.05507,-0.10299 0.03536,-0.34438 -0.07324,-0.89355 -0.131422,-0.66482 -0.382603,-1.66507 -0.485403,-1.93294 -0.02068,-0.0538 0.01525,-0.0946 0.08313,-0.0946 0.06569,0 0.149087,0.0737 0.185324,0.16393 l 0.06594,0.16393 0.0041,-0.16702 c 0.0032,-0.1314 0.100424,-0.21233 0.453732,-0.37942 0.247012,-0.11682 0.476522,-0.19546 0.510027,-0.17476 0.0335,0.0208 0.06326,0.12587 0.06602,0.23371 0.0024,0.10783 0.03333,0.26163 0.06772,0.34178 0.05101,0.1187 0.06359,0.0976 0.06772,-0.1138 0.0041,-0.19861 0.05474,-0.29622 0.216573,-0.41586 l 0.211448,-0.15634 0.04469,0.17796 0.04469,0.17795 0.151001,-0.15099 c 0.147578,-0.14759 0.569046,-0.35681 0.718757,-0.35681 0.04136,0 0.07729,0.10656 0.07981,0.2368 0.0041,0.20533 0.0129,0.21621 0.06724,0.0818 0.06513,-0.16129 0.440066,-0.46438 0.574472,-0.46438 0.0425,0 0.101357,0.17214 0.130733,0.38252 0.02936,0.21039 0.06659,0.32038 0.08278,0.24443 0.02352,-0.11057 0.04218,-0.11783 0.0937,-0.0364 0.04672,0.0738 0.06464,0.0492 0.06545,-0.0901 7.79e-4,-0.1334 0.08013,-0.25199 0.260914,-0.38987 0.142882,-0.10899 0.278359,-0.17959 0.301052,-0.1569 0.02271,0.0227 0.05272,0.76866 0.06667,1.6577 0.01938,1.22814 0.04931,1.64441 0.124625,1.73294 0.134253,0.15774 0.306243,1.8768 0.200523,2.00418 -0.04217,0.0508 -0.200028,0.12956 -0.350777,0.17498 -0.268684,0.081 -0.820536,0.47889 -0.820536,0.59165 0,0.0314 0.256575,0.20867 0.570158,0.39385 0.313583,0.18517 0.620791,0.39477 0.682682,0.46576 0.06188,0.071 0.250378,0.54628 0.418865,1.05617 l 0.306332,0.9271 0.560116,0.49367 c 0.308068,0.27152 0.6499,0.56396 0.759626,0.64988 0.209745,0.16422 0.262374,0.31793 0.108421,0.3166 -0.05004,-4.4e-4 -0.408767,-0.2784 -0.797064,-0.6177 -0.601464,-0.52555 -0.712447,-0.59653 -0.749634,-0.47937 -0.02401,0.0757 -0.09692,0.18146 -0.162039,0.23518 -0.106093,0.0875 -0.109588,0.0811 -0.03366,-0.0616 0.14345,-0.26925 0.09661,-0.6066 -0.21337,-1.5368 l -0.298165,-0.8947 -0.386131,-0.247 c -0.69282,-0.44319 -0.817981,-0.48956 -1.176447,-0.43581 -0.181301,0.0272 -0.365028,0.0873 -0.408281,0.13364 -0.04331,0.0463 -0.180076,0.074 -0.304012,0.0616 -0.304735,-0.0307 -0.38837,0.0408 -0.506377,0.4329 -0.09262,0.30776 -0.08981,0.34355 0.03552,0.4509 0.07486,0.0641 0.136174,0.15333 0.136174,0.19824 0,0.0449 -0.05994,0.008 -0.133173,-0.0828 l -0.133158,-0.16445 -0.158276,0.22227 c -0.179038,0.25143 -0.197652,0.38627 -0.0708,0.51308 0.278854,0.27885 0.866789,-0.078 1.036404,-0.62907 0.06253,-0.20335 0.106668,-0.27409 0.109702,-0.17603 0.0086,0.26645 0.337346,0.21998 0.51589,-0.0729 0.150392,-0.24666 0.205105,-0.15753 0.06456,0.10513 -0.09626,0.17988 0.03179,0.29554 0.262528,0.23727 0.131657,-0.0332 0.129905,-0.0252 -0.01825,0.0834 -0.218577,0.16027 -0.217555,0.69541 0.0024,1.33976 0.124285,0.36379 0.218237,0.51027 0.40893,0.63752 0.257158,0.17162 0.13791,0.24017 -0.149865,0.0862 -0.144431,-0.0773 -0.146564,-0.0663 -0.09564,0.49181 0.06091,0.66726 0.06643,0.68086 0.275456,0.67783 0.184821,-0.002 0.331629,-0.10571 0.515801,-0.36198 l 0.130911,-0.18215 -0.05183,0.18215 c -0.02847,0.10017 -0.09709,0.23391 -0.15246,0.29717 -0.05531,0.0633 -0.100675,0.1371 -0.100675,0.16406 0,0.0269 0.295082,0.39856 0.655739,0.82576 0.360656,0.42718 0.655747,0.80016 0.655747,0.82883 0,0.0286 -0.04315,0.0879 -0.09573,0.13157 -0.07453,0.0618 -0.230564,-0.0905 -0.703477,-0.68672 z m -1.846007,0.17988 c -0.202064,-0.11756 -0.284701,-0.40284 -0.333632,-1.15186 -0.03155,-0.48404 -0.07421,-0.69605 -0.144277,-0.71924 -0.08132,-0.0269 -0.09024,0.0781 -0.04891,0.57707 0.0827,0.99817 0.231157,1.37829 0.536045,1.37276 0.108907,-0.002 0.107894,-0.0105 -0.0092,-0.0787 z m 0.354784,-0.45808 c 0.08167,-0.32535 0.01233,-0.51743 -0.186808,-0.51743 -0.153004,0 -0.185859,0.0386 -0.205341,0.24155 -0.03844,0.40089 0.30085,0.63962 0.392149,0.27588 z m -0.428329,-1.75818 c 0.250329,-0.16403 0.222729,-0.35022 -0.04607,-0.31076 -0.118104,0.0173 -0.19813,0.004 -0.177846,-0.0281 0.02028,-0.0328 -0.07567,-0.0596 -0.213273,-0.0596 -0.137577,0 -0.389537,-0.0492 -0.559906,-0.10928 -0.492645,-0.17382 -0.655739,-0.14886 -0.655739,0.10036 0,0.25157 0.100513,0.34458 0.520287,0.48138 0.36725,0.11969 0.889085,0.0856 1.132545,-0.0738 z m -0.04988,-0.58174 c 0,-0.0206 -0.0408,-0.10265 -0.09055,-0.1824 -0.100124,-0.16032 -0.01776,-0.36638 0.168608,-0.42173 0.05937,-0.0176 0.04591,0.0139 -0.03131,0.0733 -0.190628,0.14674 -0.128632,0.38606 0.09999,0.38606 0.221845,0 0.288262,-0.26761 0.110537,-0.44533 -0.09287,-0.0929 -0.199225,-0.10696 -0.512386,-0.0678 -0.313032,0.0392 -0.486052,0.0162 -0.832418,-0.11006 -0.550595,-0.20076 -0.67745,-0.16084 -0.647304,0.20368 0.02214,0.26725 0.03398,0.27758 0.496247,0.43138 0.424429,0.14123 1.238614,0.22857 1.238614,0.13288 z m -0.577132,-0.22366 c 0.0032,-0.0848 0.02076,-0.10214 0.04396,-0.044 0.02109,0.0526 0.01849,0.11544 -0.0057,0.13965 -0.02417,0.0242 -0.04144,-0.0188 -0.03828,-0.0956 z m 0.463432,-0.86825 c 0.0032,-0.24572 0.03033,-0.29511 0.169419,-0.31486 0.09076,-0.0129 0.146208,-0.0539 0.123206,-0.0911 -0.08528,-0.13794 -0.421809,-0.0615 -0.663646,0.15094 -0.468226,0.4111 -1.123178,0.22527 -1.020232,-0.28946 0.04939,-0.24715 -0.05272,-0.2955 -0.168268,-0.0797 -0.103367,0.19315 -0.09473,0.48094 0.01719,0.57386 0.216598,0.17975 0.835994,0.36596 1.177996,0.35412 l 0.359901,-0.0125 z m 0.405937,0.035 c 0.101356,-0.18938 0.03642,-0.28993 -0.187255,-0.28993 -0.149038,0 -0.177846,0.0354 -0.177846,0.21858 0,0.1687 0.03269,0.21858 0.143158,0.21858 0.07875,0 0.178608,-0.0663 0.221943,-0.14723 z m -1.430337,-1.40827 c 0.07527,-0.22942 0.119142,-0.43493 0.09739,-0.45667 -0.07453,-0.0745 -0.401735,0.19772 -0.488079,0.4062 -0.06537,0.15791 -0.06602,0.2464 -0.0024,0.36517 0.127164,0.2376 0.241968,0.1457 0.393131,-0.3147 z m 0.365433,-0.90472 c -0.079,-0.10954 -0.344257,-0.29866 -0.589517,-0.42025 l -0.445938,-0.22108 1.674949,-0.19159 c 0.921226,-0.10537 1.69417,-0.2108 1.717666,-0.23428 0.116742,-0.11675 -0.160174,-0.10573 -1.62936,0.0649 -2.10314,0.2442 -2.06807,0.23752 -2.06807,0.3938 0,0.0975 0.111137,0.16137 0.439173,0.25258 0.282155,0.0784 0.536053,0.21088 0.710136,0.37041 0.310306,0.28438 0.401427,0.27749 0.190961,-0.0144 z m 0.481226,-1.13536 1.34791,-0.15936 -0.02368,-0.29011 c -0.0279,-0.34233 -0.164189,-0.4689 -0.518543,-0.48143 -0.158705,-0.006 -0.04209,-0.041 0.300517,-0.0911 0.307906,-0.0451 0.583864,-0.1065 0.61324,-0.13655 0.07997,-0.0817 -0.08175,-0.0706 -1.852194,0.12759 -0.894479,0.10013 -1.673164,0.18206 -1.730424,0.18206 -0.113741,0 -0.134991,0.27695 -0.05734,0.74681 0.04274,0.25856 0.05929,0.27291 0.308846,0.26731 0.14504,-0.003 0.870253,-0.0776 1.611598,-0.16525 z m -0.07291,-1.21517 c 1.571767,-0.16571 1.748632,-0.1936 1.748632,-0.27574 0,-0.031 -0.811476,0.0333 -1.80328,0.14274 -0.991805,0.10951 -1.827872,0.20109 -1.857921,0.20349 -0.03001,0.002 -0.05466,0.04 -0.05466,0.0836 0,0.0504 0.09931,0.064 0.273225,0.0375 0.15027,-0.023 0.912565,-0.10921 1.693992,-0.19159 z m -0.109297,-0.32631 c 1.429956,-0.15643 1.493631,-0.16948 1.493631,-0.30655 0,-0.29457 -0.1689,-1.04845 -0.217336,-0.97007 -0.03788,0.0612 -0.06878,0.0481 -0.104308,-0.0444 -0.0429,-0.11186 -0.06067,-0.1155 -0.118316,-0.0243 -0.0502,0.0793 -0.06805,0.0467 -0.06894,-0.12525 -6.16e-4,-0.12787 -0.0339,-0.25276 -0.07405,-0.27753 -0.04501,-0.0278 -0.07332,0.10271 -0.07405,0.34178 -7.38e-4,0.25578 -0.02311,0.35197 -0.06626,0.28394 -0.05029,-0.0793 -0.07178,-0.0627 -0.09438,0.0729 -0.02563,0.15431 -0.04599,0.13626 -0.165867,-0.14795 -0.13658,-0.3236 -0.136637,-0.32365 -0.202015,-0.12752 -0.08967,0.26901 -0.171756,0.24602 -0.274986,-0.077 -0.122062,-0.38195 -0.21543,-0.45932 -0.21543,-0.17851 0,0.1812 -0.03114,0.23315 -0.139646,0.23315 -0.07689,0 -0.156183,-0.0409 -0.176402,-0.0911 -0.0232,-0.0575 -0.03893,-0.047 -0.0425,0.0286 -0.0057,0.11824 -0.501251,0.3696 -0.604862,0.30679 -0.02904,-0.0176 -0.09424,-0.16988 -0.145064,-0.3385 l -0.09239,-0.30658 -0.03706,0.58288 -0.03707,0.58287 -0.15392,-0.40072 c -0.242917,-0.63245 -0.249673,-0.64031 -0.209104,-0.24342 0.02109,0.20675 0.0096,0.38708 -0.02571,0.40073 -0.03634,0.014 -0.03123,0.24208 0.01168,0.5252 l 0.07583,0.50038 0.369188,-0.044 c 0.203053,-0.0242 0.828208,-0.0943 1.389225,-0.15566 z m 1.73216,-1.02742 -0.06123,-0.72076 -0.05653,0.71024 c -0.05621,0.70587 -0.02458,0.93506 0.110343,0.8001 0.04226,-0.0422 0.04518,-0.34702 0.0081,-0.78958 z m 1.464831,8.53215 c -0.205227,-0.17852 -0.430487,-0.41541 -0.500586,-0.52645 -0.07016,-0.11103 0.10602,0.0268 0.391354,0.30618 0.47357,0.46377 0.554237,0.55186 0.500586,0.54663 -0.01,-8.1e-4 -0.186127,-0.14784 -0.391354,-0.32636 z m -3.955935,-2.89669 c 0.01671,-0.0104 0.112313,-0.0842 0.212502,-0.16393 l 0.182153,-0.14494 -0.138803,0.16393 c -0.07632,0.0902 -0.171966,0.16394 -0.21251,0.16394 -0.04055,0 -0.0601,-0.009 -0.04339,-0.0191 z"
       id="path1" /></g></svg>
